<svg viewBox="0 0 900 400" xmlns="http://www.w3.org/2000/svg"><path d="m0 105.85v194.15l172.5 100 167.5-97.11z" fill="#0074d9"/><path d="m340 97.1-167.49 97.11-167.58-97.07 167.57-97.14z" fill="#ff4088"/><path d="m182.51 200.01 162.49-94.22v188.41z" fill="#00d1b2"/><g fill="#111" transform="translate(-100 -75)"><path d="m550 185h14.24v24.23h17v-24.23h14.24v62.94h-14.21v-26.26h-17v26.26h-14.27z"/><path d="m607.61 229.61v-29.61h14.19v27.75c0 6.35 1.69 9.21 7 9.21 3.52 0 6-1.26 9.27-5.46v-31.5h14.18v47.91h-11.62l-1-6.88h-.39c-4.23 4.88-9.24 8-16.12 8-10.89.07-15.51-7.33-15.51-19.42z"/><path d="m664.45 256.05c0-3.9 2.56-7.11 7.43-9.59v-.39a9.17 9.17 0 0 1 -4.82-8.15c0-3.2 2.3-6.65 5.73-9v-.39a14.62 14.62 0 0 1 -6.34-12.31c0-11.49 9.66-17.36 20.49-17.36a24.78 24.78 0 0 1 7.84 1.16h19.43v10.44h-9.63a11.12 11.12 0 0 1 2.07 6.26c0 11-8.62 16.06-19.71 16.06a24.82 24.82 0 0 1 -6.58-1c-1.48 1-2.13 1.93-2.13 3.53 0 2.55 2.52 3.59 8.13 3.59h8.83c12.53 0 19.42 3.51 19.42 12.13 0 10-11.08 17.25-28.51 17.25-12.43.04-21.65-3.64-21.65-12.23zm36.66-2.54c0-3-2.94-3.68-8.4-3.68h-6a29.37 29.37 0 0 1 -7.26-.63c-2.42 1.51-3.4 3-3.4 4.68 0 3.61 4.67 5.44 12.12 5.44 7.66 0 12.94-2.52 12.94-5.81zm-6.93-37.28c0-5-3.28-7.8-7.24-7.8s-7.18 2.77-7.18 7.8c0 5.23 3.25 8 7.18 8s7.24-2.77 7.24-8z"/><path d="m721.79 224c0-15.95 11.76-25.14 24.37-25.14s24.38 9.19 24.38 25.14-11.76 25.09-24.38 25.09-24.37-9.18-24.37-25.09zm34.21 0c0-8.31-3.33-13.67-9.86-13.67s-9.85 5.36-9.85 13.67 3.33 13.62 9.85 13.62 9.86-5.33 9.86-13.62z"/><path d="m608.38 327h44.35v10h-44.35z"/><path d="m724.37 300.9h21.11c13 0 23 3.58 23 15.59a13.82 13.82 0 0 1 -10.73 13.6v.39c9 1.66 13.67 6.4 13.67 14.82 0 12.8-10.47 18.54-24.14 18.54h-22.91zm20.46 25.26c6.9 0 9.77-2.92 9.77-7.67s-3.06-6.51-9.66-6.51h-6.39v14.18zm1.29 26.6c7.73 0 11.42-2.81 11.42-8.55 0-5.52-3.61-7.8-11.42-7.8h-7.57v16.35z"/><path d="m781 345.51v-29.59h14.19v27.76c0 6.35 1.69 9.21 7 9.21 3.51 0 6-1.26 9.26-5.46v-31.51h14.18v47.92h-11.63l-1-6.84h-.39c-4.23 4.88-9.24 8.05-16.12 8.05-10.85-.05-15.49-7.45-15.49-19.54z"/><path d="m852.68 345.1v-37.77h-15v-11.14h29.22v49.49c0 5.92 3.8 7.85 7.79 7.85a20.7 20.7 0 0 0 7.41-1.53l3.13 10.45c-5 1.62-8.32 2.59-14.26 2.59-12.04-.04-18.29-7.79-18.29-19.94z"/><path d="m894 315.92h10.67l1 5.91h.33c1.78-3.86 4.81-7.06 10.35-7.06 4.13 0 7.16 2.7 8.3 7.83 1.73-4.33 5.11-7.83 10.57-7.83 6.83 0 10.68 5.88 10.68 15.46v33.61h-13.4v-32.61c0-3-.71-4.38-2.57-4.38s-3.07 1.51-4.39 4.66v32.33h-11.08v-32.61c0-3-.86-4.38-2.73-4.38s-3 1.51-4.23 4.66v32.33h-13.5z"/><path d="m954.38 350.56c0-10.74 8.85-16.21 31.44-17.58-.5-4.29-3.72-6.91-10.14-6.91-4.61 0-9.19 1.78-14.57 4.49l-5.06-9.31c6.63-3.79 14.25-6.48 22.37-6.48 13.44 0 21.58 7 21.58 21.68v27.39h-11.58l-1-5.4h-.42c-4.83 3.64-10.81 6.56-16.95 6.56-9.63 0-15.67-6.39-15.67-14.44zm31.44-1.15v-7.85c-14.07.71-17.84 3.77-17.84 7.86 0 3.08 2.59 4.58 6.6 4.58 4.25 0 7.86-2 11.24-4.59z"/></g></svg>